<svg version="1.2" xmlns="http://www.w3.org/2000/svg" viewBox="0 0 512 512" width="512" height="512">
	<title>New Project</title>
	<style>
		.s0 { fill: #000000 } 
		.s1 { fill: #ffffff } 
	</style>
	<path id="Shape 3" class="s0" d="m18 101h476v310h-476z"/>
	<path id="Shape 1" class="s1" d="m104.6 240.9l65.4-56.9c0 0 11.7-11.8 18-5 6.3 6.8 2.8 15.4 0 19-2.8 3.6-60.5 55.5-60.5 55.5l63.6 64.8c0 0 4 12.4-2.9 15.8-6.9 3.4-18.8-1.1-23.2-5.1-4.4-4-64.5-64.9-64.5-64.9 0 0-8.2-12.9 4.1-23.2zm0 0l65.4-56.9c0 0 11.7-11.8 18-5 6.3 6.8 2.8 15.4 0 19-2.8 3.6-60.5 55.5-60.5 55.5l63.6 64.8c0 0 4 12.4-2.9 15.8-6.9 3.4-18.8-1.1-23.2-5.1-4.4-4-64.5-64.9-64.5-64.9 0 0-8.2-12.9 4.1-23.2z"/>
	<path id="Shape 1 copy 2" class="s1" d="m414.5 265.2l-65.3 56.9c0 0-11.7 11.8-18 5-6.4-6.8-2.8-15.4 0-19 2.7-3.6 60.5-55.5 60.5-55.5l-63.6-64.8c0 0-4-12.4 2.9-15.8 6.9-3.5 18.8 1.1 23.2 5.1 4.3 4 64.5 64.9 64.5 64.9 0 0 8.2 12.9-4.2 23.2zm0 0l-65.3 56.9c0 0-11.7 11.8-18 5-6.4-6.8-2.8-15.4 0-19 2.7-3.6 60.5-55.5 60.5-55.5l-63.6-64.8c0 0-4-12.4 2.9-15.8 6.9-3.5 18.8 1.1 23.2 5.1 4.3 4 64.5 64.9 64.5 64.9 0 0 8.2 12.9-4.2 23.2z"/>
	<path id="Shape 2" class="s1" d="m232 341l35-174c0 0 3-11.8 17-11 14 0.8 7 14 7 14l-31 169c0 0-3.2 19.9-15 20-11.8 0.1-15.2-7.3-13-18z"/>
</svg>